# xmcd
#
# Track frame offsets:
# 150
# 10167
# 22319
# 25224
# 35885
# 50070
# 65297
# 78371
# 87412
# 103868
# 116704
# 130537
# 138028
# 139614
# 151724
# 157265
# 169682
#
# Disc length: 2303 seconds
#
# Revision: 0
# Processed by: cddbd v1.5.2PL0 Copyright (c) Steve Scherf et al.
# Submitted via: Audion 3.0.2 (http://www.panic.com/audion/)
#
DISCID=e108fd11
DTITLE=PHAROAHE MONCH - PHAROAHE MONCH
DYEAR=1900
DGENRE=
TTITLE0=INTRO
TTITLE1=SHUT EM DOWN FREESTYLE
TTITLE2=PAIN INTERLUDE
TTITLE3=PAIN
TTITLE4=LETS GO
TTITLE5=WE MUST BE IN LOVE
TTITLE6=SHES A HO
TTITLE7=THE NOTE
TTITLE8=AGENT ORANGE
TTITLE9=PUSH 
TTITLE10=DESIRE
TTITLE11=STRAY BULLET FREESTLYE
TTITLE12=THE SNIPER
TTITLE13=GUN DRAWS 
TTITLE14=GLORIOUS
TTITLE15=DOWN BY LAW
TTITLE16=OUTRO
EXTD=
EXTT0=
EXTT1=
EXTT2=
EXTT3=
EXTT4=
EXTT5=
EXTT6=
EXTT7=
EXTT8=
EXTT9=
EXTT10=
EXTT11=
EXTT12=
EXTT13=
EXTT14=
EXTT15=
EXTT16=
PLAYORDER=
